# Blender v2.83.4 OBJ File: ''
# www.blender.org
mtllib BoxHouseTestRotated.mtl
o Cube.001
v 1.073614 -0.797666 -1.100491
v 1.168736 1.133831 -0.590325
v 0.906888 0.639548 1.329862
v 0.811766 -1.291950 0.819696
v -1.073614 0.797666 1.100491
v -1.168736 -1.133831 0.590325
v -0.811766 1.291950 -0.819696
v -0.906888 -0.639548 -1.329862
v 0.099005 2.010349 0.530993
vt 0.625000 0.000000
vt 0.375000 0.250000
vt 0.375000 0.000000
vt 0.625000 0.250000
vt 0.375000 0.500000
vt 0.625000 0.500000
vt 0.375000 0.750000
vt 0.625000 0.750000
vt 0.375000 1.000000
vt 0.125000 0.750000
vt 0.125000 0.500000
vt 0.625000 0.500000
vt 0.625000 0.750000
vt 0.625000 0.250000
vt 0.625000 1.000000
vt 0.625000 1.000000
vn 0.9903 -0.0791 0.1147
vn -0.1309 -0.2471 0.9601
vn -0.9903 0.0791 -0.1147
vn 0.1309 0.2471 -0.9601
vn -0.0476 -0.9657 -0.2551
vn -0.0638 0.4741 0.8781
vn -0.6948 0.7136 0.0890
vn 0.7594 0.5975 0.2574
vn 0.1284 0.8371 -0.5318
usemtl None
s 1
f 2/1/1 4/2/1 1/3/1
f 3/4/2 6/5/2 4/2/2
f 5/6/3 8/7/3 6/5/3
f 7/8/4 1/9/4 8/7/4
f 6/5/5 1/10/5 4/11/5
f 5/6/6 3/4/6 9/12/6
f 7/8/7 5/6/7 9/13/7
f 3/4/8 2/1/8 9/14/8
f 2/15/9 7/8/9 9/16/9
f 2/1/1 3/4/1 4/2/1
f 3/4/2 5/6/2 6/5/2
f 5/6/3 7/8/3 8/7/3
f 7/8/4 2/15/4 1/9/4
f 6/5/5 8/7/5 1/10/5
