# Blender v2.83.4 OBJ File: 'RocketLabLogo.blend'
# www.blender.org
o Plane
v 2.338126 0.098876 -0.000000
v 2.137963 0.083158 -0.000000
v 2.019506 0.045674 -0.000000
v 1.977011 0.099160 -0.000000
v 1.881055 0.095077 -0.000000
v 1.760600 0.038095 -0.000000
v 1.728025 0.029622 -0.000000
v 1.487564 0.029622 -0.000000
v 1.511791 0.139471 -0.000000
v 1.702536 0.139471 -0.000000
v 1.648466 0.336223 -0.000000
v 1.571868 0.336223 -0.000000
v -0.778185 0.087845 0.000000
v 1.466759 0.103981 -0.000000
v 1.743123 0.103981 -0.000000
v 1.669547 0.371713 -0.000000
v 1.548510 0.371713 -0.000000
v 2.338495 0.064959 -0.000000
v 2.148357 0.050244 -0.000000
v 2.044621 0.019727 -0.000000
v 1.943929 0.069118 -0.000000
v 1.883383 0.067118 -0.000000
v 1.790784 0.022203 -0.000000
v -0.902336 0.087845 -0.000000
v -1.072898 0.019388 -0.000000
v -0.805675 0.059408 0.000000
v -0.901559 0.059408 -0.000000
v 2.338126 -0.098876 -0.000000
v 3.808382 0.000000 0.000000
v 2.137963 -0.083158 -0.000000
v 2.019506 -0.045674 -0.000000
v 1.986643 -0.000000 -0.000000
v 1.977011 -0.000000 -0.000000
v 1.977011 -0.099160 -0.000000
v 1.881055 -0.095077 -0.000000
v 1.760600 -0.038095 -0.000000
v 1.760600 -0.000000 -0.000000
v 1.728025 -0.000000 -0.000000
v 1.728025 -0.029622 -0.000000
v 1.487564 -0.029622 -0.000000
v 1.487564 -0.000000 -0.000000
v 1.511791 -0.139471 -0.000000
v 1.702536 -0.139471 -0.000000
v 1.648466 -0.336223 -0.000000
v 1.571868 -0.336223 -0.000000
v -0.778185 -0.087845 0.000000
v 1.466759 -0.103981 -0.000000
v 1.743123 -0.103981 -0.000000
v 1.669547 -0.371713 -0.000000
v 1.548510 -0.371713 -0.000000
v 2.338495 -0.064959 -0.000000
v 3.472316 0.000000 0.000000
v 2.148357 -0.050244 -0.000000
v 2.044621 -0.019727 -0.000000
v 2.026109 -0.000000 -0.000000
v 1.943929 -0.000000 -0.000000
v 1.943929 -0.069118 -0.000000
v 1.883383 -0.067118 -0.000000
v 1.790784 -0.022203 -0.000000
v 1.789782 -0.000000 -0.000000
v -0.778185 -0.000000 0.000000
v -0.902336 -0.087845 -0.000000
v -1.072898 -0.019388 -0.000000
v -1.081600 0.000000 -0.000000
v -0.805675 -0.059408 0.000000
v -0.805675 -0.000000 0.000000
v -0.901559 -0.059408 -0.000000
v -1.051349 0.000000 -0.000000
vt 0.000000 0.000000
vt 0.000000 0.000000
vt 0.000000 0.000000
vt 0.000000 0.000000
vt 0.000000 0.000000
vt 0.000000 0.000000
vt 0.000000 0.000000
vt 0.000000 0.000000
vt 0.000000 0.000000
vt 0.000000 0.000000
vt 0.000000 0.000000
vt 0.000000 0.000000
vt 0.000000 0.000000
vt 0.000000 0.000000
vt 0.000000 0.000000
vt 0.000000 0.000000
vt 0.000000 0.000000
vt 0.000000 0.000000
vt 0.000000 0.000000
vt 0.000000 0.000000
vt 0.000000 0.000000
vt 0.000000 0.000000
vt 0.000000 0.000000
vt 0.000000 0.000000
vt 0.000000 0.000000
vt 0.000000 0.000000
vt 0.000000 0.000000
vt 0.000000 0.000000
vt 0.000000 0.000000
vt 0.000000 0.000000
vt 0.000000 0.000000
vt 0.000000 0.000000
vt 0.000000 0.000000
vt 0.000000 0.000000
vt 0.000000 0.000000
vt 0.000000 0.000000
vt 0.000000 0.000000
vt 0.000000 0.000000
vt 0.000000 0.000000
vt 0.000000 0.000000
vt 0.000000 0.000000
vt 0.000000 0.000000
vt 0.000000 0.000000
vt 0.000000 0.000000
vt 0.000000 0.000000
vt 0.000000 0.000000
vt 0.000000 0.000000
vt 0.000000 0.000000
vt 0.000000 0.000000
vt 0.000000 0.000000
vt 0.000000 0.000000
vt 0.000000 0.000000
vt 0.000000 0.000000
vt 0.000000 0.000000
vt 0.000000 0.000000
vt 0.000000 0.000000
vt 0.000000 0.000000
vt 0.000000 0.000000
vt 0.000000 0.000000
vt 0.000000 0.000000
vt 0.000000 0.000000
vt 0.000000 0.000000
vt 0.000000 0.000000
vt 0.000000 0.000000
vt 0.000000 0.000000
vt 0.000000 0.000000
vt 0.000000 0.000000
vt 0.000000 0.000000
vn 0.0000 0.0000 -1.0000
s off
f 10/1/1 16/2/1 15/3/1
f 9/4/1 17/5/1 12/6/1
f 12/6/1 16/2/1 11/7/1
f 9/4/1 15/3/1 14/8/1
f 3/9/1 55/10/1 32/11/1
f 1/12/1 19/13/1 2/14/1
f 2/14/1 20/15/1 3/9/1
f 1/12/1 52/16/1 18/17/1
f 5/18/1 23/19/1 6/20/1
f 33/21/1 21/22/1 4/23/1
f 23/19/1 37/24/1 6/20/1
f 21/22/1 5/18/1 4/23/1
f 61/25/1 26/26/1 13/27/1
f 24/28/1 26/26/1 27/29/1
f 24/28/1 27/29/1 68/30/1
f 38/31/1 8/32/1 7/33/1
f 43/34/1 49/35/1 44/36/1
f 50/37/1 42/38/1 45/39/1
f 49/35/1 45/39/1 44/36/1
f 42/38/1 48/40/1 43/34/1
f 55/10/1 31/41/1 32/11/1
f 53/42/1 28/43/1 30/44/1
f 54/45/1 30/44/1 31/41/1
f 28/43/1 52/16/1 29/46/1
f 35/47/1 59/48/1 58/49/1
f 33/21/1 57/50/1 56/51/1
f 37/24/1 59/48/1 36/52/1
f 35/47/1 57/50/1 34/53/1
f 65/54/1 61/25/1 46/55/1
f 62/56/1 65/54/1 46/55/1
f 68/30/1 62/56/1 63/57/1
f 39/58/1 41/59/1 38/31/1
f 10/1/1 11/7/1 16/2/1
f 9/4/1 14/8/1 17/5/1
f 12/6/1 17/5/1 16/2/1
f 9/4/1 10/1/1 15/3/1
f 3/9/1 20/15/1 55/10/1
f 1/12/1 18/17/1 19/13/1
f 2/14/1 19/13/1 20/15/1
f 1/12/1 29/46/1 52/16/1
f 5/18/1 22/60/1 23/19/1
f 33/21/1 56/51/1 21/22/1
f 23/19/1 60/61/1 37/24/1
f 21/22/1 22/60/1 5/18/1
f 61/25/1 66/62/1 26/26/1
f 24/28/1 13/27/1 26/26/1
f 68/30/1 64/63/1 25/64/1
f 25/64/1 24/28/1 68/30/1
f 38/31/1 41/59/1 8/32/1
f 43/34/1 48/40/1 49/35/1
f 50/37/1 47/65/1 42/38/1
f 49/35/1 50/37/1 45/39/1
f 42/38/1 47/65/1 48/40/1
f 55/10/1 54/45/1 31/41/1
f 53/42/1 51/66/1 28/43/1
f 54/45/1 53/42/1 30/44/1
f 28/43/1 51/66/1 52/16/1
f 35/47/1 36/52/1 59/48/1
f 33/21/1 34/53/1 57/50/1
f 37/24/1 60/61/1 59/48/1
f 35/47/1 58/49/1 57/50/1
f 65/54/1 66/62/1 61/25/1
f 62/56/1 67/67/1 65/54/1
f 63/57/1 64/63/1 68/30/1
f 68/30/1 67/67/1 62/56/1
f 39/58/1 40/68/1 41/59/1
o Plane.001
v 1.448290 0.077767 0.000000
v 1.448290 -0.082424 -0.000000
v 1.271910 0.015044 0.000000
v 1.271910 0.039363 0.000000
v 1.404689 0.039363 0.000000
v 1.404689 0.015044 0.000000
v 1.230486 0.039741 0.000000
v 1.258229 0.077767 0.000000
v 1.404689 -0.082424 -0.000000
v 1.255891 -0.082424 -0.000000
v 1.231674 0.001139 0.000000
v 1.246964 -0.018175 -0.000000
v 1.279152 -0.020589 -0.000000
v 1.231674 -0.040707 -0.000000
v 1.404689 -0.022198 -0.000000
v 1.230064 0.053446 0.000000
v 1.180015 0.077767 0.000000
v 1.182397 -0.082424 -0.000000
v 1.208601 0.051680 0.000000
v 1.208601 -0.055520 -0.000000
v 1.020406 0.077767 0.000000
v 1.018024 -0.082424 -0.000000
v 0.994625 0.051680 0.000000
v 0.994625 -0.057902 -0.000000
v 1.031721 0.033217 0.000000
v 1.031126 -0.040036 -0.000000
v 1.171677 -0.040631 -0.000000
v 1.171081 0.032026 0.000000
v 0.946557 -0.082424 -0.000000
v 0.946558 0.077767 0.000000
v 0.973190 -0.051351 -0.000000
v 0.973190 0.052871 0.000000
v 0.757204 -0.082424 -0.000000
v 0.757204 0.077767 0.000000
v 0.757204 0.037982 0.000000
v 0.930775 0.036791 0.000000
v 0.930775 -0.043014 -0.000000
v 0.757204 -0.043014 -0.000000
v 0.737518 -0.082424 -0.000000
v 0.737518 0.077767 0.000000
v 0.535625 0.077767 0.000000
v 0.694813 0.077767 0.000000
v 0.694813 -0.082424 -0.000000
v 0.536816 -0.082424 -0.000000
v 0.694813 0.019520 0.000000
v 0.519545 0.038577 0.000000
v 0.633891 -0.001325 0.000000
v 0.520140 -0.043014 -0.000000
v 0.694813 -0.025742 -0.000000
v 0.497738 0.077767 0.000000
v 0.497738 -0.082424 -0.000000
v 0.284896 -0.082424 -0.000000
v 0.284896 0.077767 0.000000
v 0.284896 0.036195 0.000000
v 0.459989 0.037982 0.000000
v 0.459989 0.017137 0.000000
v 0.284896 0.016542 0.000000
v 0.284896 -0.022169 -0.000000
v 0.459989 -0.022169 -0.000000
v 0.459989 -0.043014 -0.000000
v 0.284896 -0.043014 -0.000000
v 0.174719 -0.082424 -0.000000
v 0.258693 0.077767 0.000000
v 0.258693 0.037386 0.000000
v 0.174719 0.037386 0.000000
v 0.045484 0.077767 0.000000
v 0.134222 -0.082424 -0.000000
v 0.134222 0.037386 0.000000
v 0.045484 0.037386 0.000000
v -0.056355 0.077767 0.000000
v -0.056355 -0.082424 -0.000000
v -0.102213 0.077767 0.000000
v -0.275519 -0.082424 -0.000000
v -0.102213 -0.040631 -0.000000
v -0.275519 -0.041227 -0.000000
v -0.295768 -0.082424 -0.000000
v -0.322568 0.077767 0.000000
v -0.295768 0.051680 0.000000
v -0.333884 -0.082424 -0.000000
v -0.472347 -0.082424 -0.000000
v -0.333884 -0.023956 -0.000000
v -0.472347 -0.023956 -0.000000
v -0.487058 0.077767 0.000000
v -0.510168 -0.082424 -0.000000
v -0.510763 0.054062 0.000000
v -0.333884 0.037386 0.000000
v -0.472347 0.037386 0.000000
v -0.472347 0.017137 0.000000
v -0.333884 0.017137 0.000000
v -0.536968 0.077767 0.000000
v -0.536372 -0.082424 -0.000000
v -0.717916 0.077141 0.000000
v -0.750519 0.051084 0.000000
v -0.750519 -0.052542 -0.000000
v -0.720994 -0.082424 -0.000000
v -0.573445 0.037386 0.000000
v -0.573445 0.016244 0.000000
v -0.711019 0.016244 0.000000
v -0.711019 0.037386 0.000000
v -0.573445 -0.020978 -0.000000
v -0.711019 -0.020978 -0.000000
v -0.711019 -0.045396 -0.000000
v -0.573445 -0.045396 -0.000000
vt 0.901484 0.478355
vt 0.900944 0.237383
vt 0.920150 0.377885
vt 0.980171 0.237227
vt 0.919418 0.242250
vt 0.913562 0.000000
vt 0.685956 1.000000
vt 0.685956 0.753977
vt 0.764503 0.753977
vt 0.879074 1.000000
vt 0.804318 1.000000
vt 0.810277 0.735388
vt 0.656433 0.646162
vt 0.629618 0.493734
vt 0.656433 0.363613
vt 0.567864 1.000000
vt 0.549780 0.623855
vt 0.551070 0.378484
vt 0.459161 0.000000
vt 0.420937 0.252080
vt 0.402512 0.252080
vt 0.294822 0.739106
vt 0.315823 0.000000
vt 0.315611 1.000000
vt 0.187644 0.252080
vt 0.126411 0.252080
vt 0.194705 0.000000
vt 0.126400 0.367331
vt 0.189252 0.367330
vt 0.189754 0.635009
vt 0.018308 0.240927
vt 0.000000 0.166571
vt 0.014834 0.003909
vt 0.080329 0.623967
vt 0.018306 0.385919
vt 0.080344 0.382201
vt 0.081132 0.768954
vt 0.097365 1.000000
vt 0.013424 1.000000
vt 0.890991 0.832050
vt 0.874199 0.739106
vt 0.873927 0.285540
vt 0.980171 0.382909
vt 1.000000 0.000000
vt 1.000000 1.000000
vt 0.980537 1.000000
vt 0.979805 0.624036
vt 0.911866 1.000000
vt 0.923077 0.613990
vt 0.901485 0.739578
vt 0.908438 0.598920
vt 0.900753 0.151827
vt 0.764774 0.255798
vt 0.685414 0.248362
vt 0.685685 0.000000
vt 0.771816 0.000000
vt 0.782921 0.155418
vt 0.783463 0.806025
vt 0.771816 1.000000
vt 0.794026 0.846921
vt 0.656162 0.000000
vt 0.676746 0.000000
vt 0.676747 1.000000
vt 0.657245 1.000000
vt 0.585469 1.000000
vt 0.577885 0.753977
vt 0.577614 0.244645
vt 0.584927 0.000000
vt 0.471146 0.259515
vt 0.471083 0.000000
vt 0.550765 0.248362
vt 0.567593 0.000000
vt 0.470766 1.000000
vt 0.550628 0.753977
vt 0.470713 0.753977
vt 0.470684 0.623855
vt 0.470902 0.382201
vt 0.362138 0.252080
vt 0.362157 0.000000
vt 0.459156 0.252080
vt 0.420672 1.000000
vt 0.402260 1.000000
vt 0.294960 0.000000
vt 0.215965 1.000000
vt 0.216009 0.742823
vt 0.109080 0.147983
vt 0.119867 0.000000
vt 0.206896 0.162853
vt 0.109279 1.000000
vt 0.126915 0.635009
vt 0.126342 1.000000
vt 0.206759 1.000000
vt 0.189700 1.000000
vt 0.097173 0.025603
vt 0.080352 0.263233
vt 0.000000 0.813461
vt 0.018032 0.608692
vt 0.017218 0.768660
vt 0.793484 0.162854
vt 0.805402 0.000000
vt 0.810548 0.278104
vt 0.877991 0.000000
vt 0.890991 0.162854
vn 0.0000 0.0000 -1.0000
s off
f 79/69/2 75/70/2 71/71/2
f 73/72/2 72/73/2 76/74/2
f 101/75/2 106/76/2 105/77/2
f 86/78/2 90/79/2 94/80/2
f 117/81/2 115/82/2 113/83/2
f 119/84/2 127/85/2 124/86/2
f 131/87/2 133/88/2 136/89/2
f 142/90/2 138/91/2 139/92/2
f 154/93/2 155/94/2 145/95/2
f 156/96/2 157/97/2 149/98/2
f 167/99/2 161/100/2 160/101/2
f 168/102/2 166/103/2 165/104/2
f 171/105/2 159/106/2 163/107/2
f 88/108/2 95/109/2 96/110/2
f 74/111/2 69/112/2 70/113/2
f 70/113/2 77/114/2 83/115/2
f 83/115/2 78/116/2 81/117/2
f 78/116/2 82/118/2 81/117/2
f 81/117/2 80/119/2 71/71/2
f 80/119/2 79/69/2 71/71/2
f 74/111/2 70/113/2 83/115/2
f 75/70/2 72/73/2 71/71/2
f 71/71/2 74/111/2 81/117/2
f 74/111/2 83/115/2 81/117/2
f 72/73/2 75/70/2 84/120/2
f 84/120/2 76/74/2 72/73/2
f 76/74/2 69/112/2 73/72/2
f 69/112/2 74/111/2 73/72/2
f 104/121/2 103/122/2 102/123/2
f 102/123/2 98/124/2 104/121/2
f 98/124/2 100/125/2 104/121/2
f 100/125/2 99/126/2 104/121/2
f 99/126/2 97/127/2 105/77/2
f 104/121/2 99/126/2 105/77/2
f 97/127/2 101/75/2 105/77/2
f 90/79/2 92/128/2 94/80/2
f 94/80/2 95/109/2 86/78/2
f 95/109/2 88/108/2 86/78/2
f 113/83/2 110/129/2 108/130/2
f 108/130/2 107/131/2 113/83/2
f 107/131/2 111/132/2 117/81/2
f 117/81/2 112/133/2 115/82/2
f 112/133/2 116/134/2 115/82/2
f 107/131/2 117/81/2 113/83/2
f 114/135/2 109/136/2 115/82/2
f 109/136/2 113/83/2 115/82/2
f 122/137/2 121/138/2 123/139/2
f 121/138/2 118/140/2 123/139/2
f 119/84/2 120/141/2 128/142/2
f 120/141/2 129/143/2 128/142/2
f 126/144/2 125/145/2 127/85/2
f 125/145/2 124/86/2 127/85/2
f 124/86/2 123/139/2 118/140/2
f 118/140/2 119/84/2 124/86/2
f 119/84/2 128/142/2 127/85/2
f 136/89/2 137/146/2 134/147/2
f 134/147/2 131/87/2 136/89/2
f 131/87/2 132/148/2 133/88/2
f 133/88/2 130/149/2 136/89/2
f 130/149/2 135/150/2 136/89/2
f 142/90/2 140/151/2 138/91/2
f 139/92/2 141/152/2 142/90/2
f 141/152/2 143/153/2 142/90/2
f 155/94/2 153/154/2 151/155/2
f 151/155/2 145/95/2 155/94/2
f 145/95/2 146/156/2 154/93/2
f 146/156/2 157/97/2 154/93/2
f 152/157/2 153/154/2 150/158/2
f 153/154/2 155/94/2 156/96/2
f 153/154/2 156/96/2 150/158/2
f 150/158/2 148/159/2 152/157/2
f 144/160/2 147/161/2 149/98/2
f 146/156/2 144/160/2 149/98/2
f 149/98/2 150/158/2 156/96/2
f 157/97/2 146/156/2 149/98/2
f 160/101/2 158/162/2 164/163/2
f 164/163/2 167/99/2 160/101/2
f 162/164/2 161/100/2 166/103/2
f 161/100/2 167/99/2 166/103/2
f 169/165/2 170/166/2 162/164/2
f 159/106/2 171/105/2 168/102/2
f 169/165/2 162/164/2 166/103/2
f 158/162/2 159/106/2 165/104/2
f 159/106/2 168/102/2 165/104/2
f 168/102/2 169/165/2 166/103/2
f 165/104/2 164/163/2 158/162/2
f 163/107/2 162/164/2 170/166/2
f 170/166/2 171/105/2 163/107/2
f 92/128/2 91/167/2 94/80/2
f 91/167/2 89/168/2 93/169/2
f 94/80/2 91/167/2 93/169/2
f 89/168/2 85/170/2 93/169/2
f 85/170/2 87/171/2 96/110/2
f 93/169/2 85/170/2 96/110/2
f 87/171/2 88/108/2 96/110/2
o Circle
v 0.015361 0.025916 0.000000
v -0.014565 0.025916 0.000000
v -0.029528 -0.000000 -0.000000
v -0.014565 -0.025916 -0.000000
v 0.015361 -0.025916 -0.000000
v 0.030323 -0.000000 0.000000
vt 0.000000 0.000000
vt 0.000000 0.000000
vt 0.000000 0.000000
vt 0.000000 0.000000
vt 0.000000 0.000000
vt 0.000000 0.000000
vn 0.0000 0.0000 -1.0000
s off
f 176/172/3 175/173/3 174/174/3
f 174/174/3 173/175/3 172/176/3
f 172/176/3 177/177/3 174/174/3
f 177/177/3 176/172/3 174/174/3
